<svg xmlns="http://www.w3.org/2000/svg" version="1.1" xmlns:xlink="http://www.w3.org/1999/xlink" xmlns:svgjs="http://svgjs.dev/svgjs" width="1000" height="750" viewBox="0 0 1000 750"><rect width="1000" height="750" fill="#7a26c1"></rect><g transform="matrix(0.5191111111111111,0,0,0.5191111111111111,240.4444444444445,83)"><svg viewBox="0 0 320 360" data-background-color="#7a26c1" preserveAspectRatio="xMidYMid meet" height="1125" width="1000" xmlns="http://www.w3.org/2000/svg" xmlns:xlink="http://www.w3.org/1999/xlink"><g id="tight-bounds" transform="matrix(1,0,0,1,0,0)"><svg viewBox="0 0 320 360" height="360" width="320"><g><svg></svg></g><g><svg viewBox="0 0 320 360" height="360" width="320"><g><path xmlns="http://www.w3.org/2000/svg" d="M20.961 227.22l3.726 4.658-1.863-6.056c-0.466-2.795-3.726 0.466-1.863 1.398M25.153 224.425c1.397 2.329 2.795 4.658 2.795 6.987 0 3.261 2.795 4.658 5.123 5.589-3.261-3.726-5.124-13.974-7.918-12.576M204.017 26.929c7.918 0 15.371-0.932 23.756 0.931 20.495 5.124 37.729 15.371 49.374 29.811l32.606 52.169c1.397 13.042 4.192 27.482 3.726 43.319 3.261 0 2.795-4.658 6.521-5.59-3.726 9.316-5.59 20.961-6.521 34.469-2.329-7.453 0-18.632 0.466-24.687-3.261 5.124-5.124 1.397-5.124-0.932 0.466-3.726-1.397-3.261-2.795-4.658-5.124-4.658-8.384-9.782-12.11-17.7 2.329-6.055 2.795-14.905-4.658-19.563-2.329-1.397-5.124-3.726-6.521-7.453-1.863-5.124-5.124-11.179-4.193-19.097 0.466-2.329-6.987 5.124-11.179 1.863-18.166-12.576-36.332-27.016-58.224-39.127-11.645 0-20.029-4.192-24.221-9.316-3.726-4.658-0.932-10.713 4.658-11.179 3.261 0 6.987-0.932 9.782 0.932 0.466-1.863 2.329-4.192 4.657-4.192M157.904 16.215l0.932 0.466c4.658 0.932 6.987 7.453 12.11 5.124 0 3.261 0.466 6.521-0.466 8.85-1.397 3.726-5.59 3.726-8.85 3.726-31.208-1.863-49.374 11.179-68.471 22.358-5.124 3.261-10.713 5.59-14.906 9.782-20.029 18.632-41.921 35.866-47.045 70.335l-4.192 38.195c-0.466 4.192-5.124 8.384-4.192 13.508l3.26 22.824c-3.261-3.261-5.124 0.932-4.192 2.795 0.466 1.397 2.329 6.055 5.124 1.863 3.726 6.987 7.453 20.495 12.576 26.55 15.837 18.632 36.332 35.4 53.101 52.169 4.192-0.932 7.453-0.932 8.384-3.727 1.397 2.795-1.397 5.59-3.726 6.056 7.453 4.658 15.837 8.85 27.016 9.781 14.44 0.932 27.948 3.261 40.524 6.522 6.521-1.863 13.042-2.795 20.029-3.261 2.329 0 3.726-3.726 6.521-4.658l0.466-4.658c2.795 4.192 2.329-1.397 0.466-4.192 3.261 2.795 4.192 5.124 5.589 6.987 0-1.397 3.726-6.521 3.727-0.466l0.931-6.055c1.397-0.932 1.863 5.124 3.261 0.931 1.397-4.192 4.192-0.932 6.987-2.329-0.932 1.863-0.466 5.59 2.794 3.261l3.727-3.261c2.329 5.59 6.055 3.261 7.918 2.329 20.495-13.042 40.99-28.413 60.553-43.784l-0.466 6.055 2.329-7.453c2.329 2.329 4.192 0.466 5.124-0.931 2.795-4.658 6.521-9.316 12.577-13.508-7.453 20.029-16.303 35.866-27.482 48.908l-4.658 5.59c0 3.261-0.932 7.453-4.658 7.918-1.863 0.466-5.59-0.932-8.384 1.863-1.397 1.863 3.261 5.59-0.466 2.795-3.261-2.329-6.521 0-10.248 0.932-2.795 0.932 1.863 3.726 2.795 5.589 0.932 1.863 1.863 3.726 1.398 6.056l-5.124-5.59c-6.055 3.261-9.782 9.316-14.906 13.974-2.329 1.863-1.397 5.124-1.397 7.918-3.261 0-6.987-0.932-8.85 0.932-1.397 1.863-0.932 4.658-0.932 7.453-4.658-0.466-5.124-7.453-9.315-6.056-4.192 0.932-8.85 1.397-12.577 3.727 2.795 5.59-4.658 2.329-3.726 3.26-6.987-4.192-13.042-7.453-20.495-4.658-15.837-5.124-35.4-2.795-49.84-0.931 0-2.329 0.466-4.658-0.466-5.124-0.932 2.329-3.726 1.397-3.26 1.397-8.85-6.055-17.7-9.782-27.016-14.905-8.384 0.932-16.303-3.261-18.632-5.59-6.521-6.055-13.974-2.795-20.029-4.192-13.042-3.261-17.7-16.769-19.098-26.084-0.932-4.658-4.658-6.521-6.055-6.056-6.055-19.563-15.371-37.263-22.824-55.429-1.863-4.658-1.397-9.316-1.397-14.44 2.329 0.932 4.658 0.466 4.192-2.794-2.329-15.371-7.918-27.016-13.974-38.195 3.261-15.837 3.726-34.469 11.179-48.443 6.521-12.576 18.632-19.098 27.016-29.811 2.795-3.726 2.795-8.85 5.59-12.11 9.316-9.316 18.632-19.098 28.879-27.482 4.658-3.726 10.247 0 17.234-1.397 2.329-8.384 11.645-15.837 20.495-13.508 3.726 0.932 11.179-8.85 13.508-9.782 3.726-1.397 1.863 3.726 1.863 6.987 8.85-6.987 20.961-10.713 32.14-14.906" fill="#ffffff" fill-rule="nonzero" stroke="none" stroke-width="1" stroke-linecap="butt" stroke-linejoin="miter" stroke-miterlimit="10" stroke-dasharray="" stroke-dashoffset="0" font-family="none" font-weight="none" font-size="none" text-anchor="none" style="mix-blend-mode: normal" data-fill-palette-color="tertiary"></path></g><g transform="matrix(1,0,0,1,64,134.3986025972093)"><svg viewBox="0 0 192 91.20279480558139" height="91.20279480558139" width="192"><g><svg viewBox="0 0 192 91.20279480558139" height="91.20279480558139" width="192"><g><svg viewBox="0 0 192 91.20279480558139" height="91.20279480558139" width="192"><g transform="matrix(1,0,0,1,0,55.12465527069768)"><svg viewBox="0 0 192 36.07813953488372" height="36.07813953488372" width="192"><g id="textblocktransform"><svg viewBox="0 0 192 36.07813953488372" height="36.07813953488372" width="192" id="textblock"><g><svg viewBox="0 0 192 36.07813953488372" height="36.07813953488372" width="192"><g transform="matrix(1,0,0,1,0,0)"><svg width="192" viewBox="3.700000047683716 -39.95000076293945 214.99000549316406 40.400001525878906" height="36.07813953488372" data-palette-color="#ffffff"><path d="M34.65-39.95L34.65-39.95Q36.25-39.95 38.15-39.2L38.15-39.2Q39.9-38.5 39.9-36.55L39.9-36.55 39.9-2.1Q39.9 0.3 36.95 0.3L36.95 0.3Q34 0.3 34-2.1L34-2.1 34-27.8 32.55-27.95 30.55-21.45 24.55-1.45Q24 0.3 21.85 0.25L21.85 0.25Q20.9 0.2 20.2-0.25 19.5-0.7 19.25-1.55L19.25-1.55 15.65-13.2Q14.55-16.65 13.45-20.23 12.35-23.8 11.05-28.15L11.05-28.15 9.6-27.95 9.6-2.1Q9.6 0.3 6.65 0.3L6.65 0.3Q3.7 0.3 3.7-2.1L3.7-2.1 3.7-36.55Q3.7-38.45 5.45-39.2L5.45-39.2Q7.3-39.95 9-39.9L9-39.9Q9.75-39.9 10.55-39.7 11.35-39.5 12.05-39.13 12.75-38.75 13.3-38.18 13.85-37.6 14.15-36.85L14.15-36.85 22-10.1Q22.85-13.05 23.8-16.5 24.75-19.95 25.75-23.5 26.75-27.05 27.73-30.53 28.7-34 29.55-37L29.55-37Q29.85-37.7 30.4-38.25 30.95-38.8 31.65-39.18 32.35-39.55 33.13-39.75 33.9-39.95 34.65-39.95ZM56.25-22.85L65.9-22.85Q67.2-22.85 68.6-22.3 70-21.75 71.3-20.85L71.3-20.85 71.25-20.85Q72.55-19.95 73.25-18.4 73.95-16.85 73.95-14.85L73.95-14.85 73.95-8Q73.95-3.95 71.25-1.95L71.25-1.95Q69.95-1 68.57-0.48 67.2 0.05 65.9 0.05L65.9 0.05 55 0.05Q53.7 0.05 52.32-0.48 50.95-1 49.65-1.95L49.65-1.95Q46.95-3.95 46.95-8L46.95-8 46.95-11.3Q46.95-13.65 49.9-13.65L49.9-13.65Q52.9-13.65 52.9-11.3L52.9-11.3 52.9-8.4Q52.9-7.1 53.65-6.05 54.4-5 56.25-5L56.25-5 64.65-5Q66.5-5 67.25-6.05 68-7.1 68-8.4L68-8.4 68-14.45Q68-15.7 67.25-16.78 66.5-17.85 64.65-17.85L64.65-17.85 55-17.85Q52.4-17.85 49.65-19.75L49.65-19.75Q46.95-21.85 46.95-25.8L46.95-25.8 46.95-31.75Q46.95-33.75 47.65-35.27 48.35-36.8 49.65-37.75L49.65-37.75 49.6-37.75Q50.9-38.6 52.3-39.15 53.7-39.7 55-39.7L55-39.7 65.9-39.7Q67.2-39.7 68.6-39.15 70-38.6 71.3-37.75L71.3-37.75 71.25-37.75Q72.55-36.8 73.25-35.27 73.95-33.75 73.95-31.75L73.95-31.75 73.95-28.8Q73.95-26.45 70.95-26.45L70.95-26.45Q68-26.45 68-28.8L68-28.8 68-31.3Q68-32.55 67.25-33.6 66.5-34.65 64.65-34.65L64.65-34.65 56.25-34.65Q54.4-34.65 53.65-33.6 52.9-32.55 52.9-31.3L52.9-31.3 52.9-26.2Q52.9-24.9 53.65-23.88 54.4-22.85 56.25-22.85L56.25-22.85ZM125.94-11.25L132.39-38.05 132.34-38Q132.64-39.1 133.52-39.6 134.39-40.1 135.84-39.85L135.84-39.85Q137.29-39.6 137.92-38.95 138.54-38.3 138.19-37.15L138.19-37.15 129.19-1.3 129.19-1.35Q128.94-0.5 128.07-0.05 127.19 0.4 126.24 0.4L126.24 0.4Q125.14 0.4 124.17 0.08 123.19-0.25 122.94-1.25L122.94-1.25 122.99-1.2 116.84-25.6 115.49-25.6 109.39-1.25Q109.14-0.4 108.14 0 107.14 0.4 106.09 0.4L106.09 0.4Q104.79 0.4 104.02 0.03 103.24-0.35 102.99-1.3L102.99-1.3 103.04-1.25 94.04-37.15Q93.79-38.15 94.49-38.88 95.19-39.6 96.49-39.85L96.49-39.85Q99.29-40.3 99.89-38L99.89-38 99.84-38.05 102.09-29Q102.54-27.2 102.99-25.33 103.44-23.45 103.99-21.33 104.54-19.2 105.19-16.7 105.84-14.2 106.64-11.1L106.64-11.1 113.04-38.1Q113.29-39.2 114.19-39.55 115.09-39.9 116.19-39.9L116.19-39.9Q117.19-39.9 118.14-39.53 119.09-39.15 119.34-38L119.34-38 125.94-11.25ZM166.89-1.2L155.89-34.8 144.94-1.2 144.94-1.25Q144.64-0.5 144.12-0.03 143.59 0.45 142.84 0.45L142.84 0.45Q142.44 0.45 142.06 0.38 141.69 0.3 141.29 0.2L141.29 0.2 141.34 0.2Q138.49-0.7 139.24-3L139.24-3 150.64-37.65Q150.89-38.45 151.52-39 152.14-39.55 152.99-39.65L152.99-39.65Q153.84-39.8 154.64-39.88 155.44-39.95 155.89-39.95L155.89-39.95Q156.34-39.95 157.14-39.88 157.94-39.8 158.79-39.7L158.79-39.7Q159.49-39.6 160.17-38.95 160.84-38.3 161.19-37.65L161.19-37.65Q163.99-29.05 166.87-20.33 169.74-11.6 172.54-3L172.54-3Q173.24-0.7 170.44 0.2L170.44 0.2Q170.04 0.3 169.72 0.38 169.39 0.45 168.99 0.45L168.99 0.45Q168.29 0.45 167.72-0.03 167.14-0.5 166.89-1.25L166.89-1.25 166.89-1.2ZM159.64-12L159.64-12Q159.64-10.4 158.52-9.28 157.39-8.15 155.79-8.15L155.79-8.15Q154.19-8.15 153.09-9.28 151.99-10.4 151.99-12L151.99-12Q151.99-13.6 153.09-14.73 154.19-15.85 155.79-15.85L155.79-15.85Q157.39-15.85 158.52-14.73 159.64-13.6 159.64-12ZM199.19-10.5L199.19-37.55Q199.19-39.95 202.14-39.95L202.14-39.95Q205.09-39.95 205.09-37.55L205.09-37.55 205.09-3.05Q205.09-1.3 203.24-0.5L203.24-0.5 203.29-0.5Q202.49-0.15 201.59 0.05 200.69 0.25 199.84 0.25L199.84 0.25Q199.19 0.25 198.49 0.13 197.79 0 197.16-0.28 196.54-0.55 196.01-1.03 195.49-1.5 195.19-2.2L195.19-2.2 184.34-29.25 182.99-29.1 182.99-2.1Q182.99 0.3 179.99 0.3L179.99 0.3Q177.04 0.3 177.04-2.1L177.04-2.1 177.04-36.55Q177.04-38.6 178.84-39.3L178.84-39.3Q180.49-39.95 182.34-39.95L182.34-39.95Q183.64-39.95 184.96-39.43 186.29-38.9 186.99-37.45L186.99-37.45 197.79-10.35 199.19-10.5ZM218.69-37.55L218.69-2.1Q218.69 0.3 215.69 0.3L215.69 0.3Q212.74 0.3 212.74-2.1L212.74-2.1 212.74-37.55Q212.74-39.95 215.69-39.95L215.69-39.95Q218.69-39.95 218.69-37.55L218.69-37.55Z" opacity="1" transform="matrix(1,0,0,1,0,0)" fill="#ffffff" class="wordmark-text-0" data-fill-palette-color="primary" id="text-0"></path></svg></g></svg></g></svg></g></svg></g><g transform="matrix(1,0,0,1,65.3161331376233,0)"><svg viewBox="0 0 61.3677337247534 49.85998883720931" height="49.85998883720931" width="61.3677337247534"><g><svg xmlns="http://www.w3.org/2000/svg" viewBox="5.116999626159668 13.532999038696289 89.76602172851562 72.93299865722656" x="0" y="0" height="49.85998883720931" width="61.3677337247534" class="icon-icon-0" data-fill-palette-color="accent" id="icon-0"><g fill="#ffffff" data-fill-palette-color="accent"><path d="M50.755 68.381V45.336a0.1 0.1 0 0 0-0.1-0.1h-1.4a0.1 0.1 0 0 0-0.1 0.1V68.381H44.032a0.1 0.1 0 0 0-0.1 0.1v1.4a0.1 0.1 0 0 0 0.1 0.1H55.968a0.1 0.1 0 0 0 0.1-0.1v-1.4a0.1 0.1 0 0 0-0.1-0.1Z" fill="#ffffff" data-fill-palette-color="accent"></path><rect x="39.947" y="39.694" width="20.016" height="1.601" rx="0.245" ry="0.245" fill="#ffffff" data-fill-palette-color="accent"></rect><path d="M66.185 13.533H33.724a1.207 1.207 0 0 0-1.207 1.207V34.123a1.207 1.207 0 0 0 1.207 1.207H48.551v3.423h2.807V35.33H66.185a1.207 1.207 0 0 0 1.207-1.207V14.74A1.207 1.207 0 0 0 66.185 13.533Zm-0.45 20.14H34.174V15.19H65.736Z" fill="#ffffff" data-fill-palette-color="accent"></path><rect x="12.546" y="84.865" width="20.016" height="1.601" rx="0.245" ry="0.245" fill="#ffffff" data-fill-palette-color="accent"></rect><path d="M38.785 58.7H6.324a1.207 1.207 0 0 0-1.207 1.207V79.295A1.207 1.207 0 0 0 6.324 80.5H21.151v3.423h2.807V80.5H38.785a1.207 1.207 0 0 0 1.207-1.207V59.911A1.207 1.207 0 0 0 38.785 58.7Zm-0.45 20.14H6.774V60.362H38.335Z" fill="#ffffff" data-fill-palette-color="accent"></path><rect x="67.437" y="84.865" width="20.016" height="1.601" rx="0.245" ry="0.245" fill="#ffffff" data-fill-palette-color="accent"></rect><path d="M93.676 58.7H61.215a1.207 1.207 0 0 0-1.207 1.207V79.295A1.207 1.207 0 0 0 61.215 80.5H76.042v3.423h2.807V80.5H93.676a1.207 1.207 0 0 0 1.207-1.207V59.911A1.207 1.207 0 0 0 93.676 58.7Zm-0.45 20.14H61.665V60.362H93.227Z" fill="#ffffff" data-fill-palette-color="accent"></path><path d="M49.955 16.243a8.2 8.2 0 1 0 8.2 8.2A8.2 8.2 0 0 0 49.955 16.243Zm6.178 4.007a7.426 7.426 0 0 1 1.278 3.826H54.4a10.375 10.375 0 0 0-0.606-3.146A17.876 17.876 0 0 0 56.133 20.25Zm-6.545 3.826H46.217a9.631 9.631 0 0 1 0.6-3.008 18.127 18.127 0 0 0 2.772 0.269Zm0 0.733v2.8a18.125 18.125 0 0 0-2.753 0.265 9.635 9.635 0 0 1-0.618-3.065Zm0.733 0h3.341a9.634 9.634 0 0 1-0.616 3.061 18.136 18.136 0 0 0-2.725-0.261Zm0-0.733V21.336a18.138 18.138 0 0 0 2.744-0.264 9.632 9.632 0 0 1 0.6 3Zm5.348-4.437a17.142 17.142 0 0 1-2.154 0.6 10.421 10.421 0 0 0-2.14-3.127A7.458 7.458 0 0 1 55.669 19.638Zm-2.9 0.74a17.443 17.443 0 0 1-2.45 0.225V17.138A9.7 9.7 0 0 1 52.771 20.378Zm-3.183-3.267V20.6a17.434 17.434 0 0 1-2.478-0.23A9.7 9.7 0 0 1 49.588 17.112Zm-1.091 0.007a10.421 10.421 0 0 0-2.131 3.115 17.142 17.142 0 0 1-2.126-0.6A7.459 7.459 0 0 1 48.5 17.119Zm-2.406 3.8a10.375 10.375 0 0 0-0.608 3.152H42.5a7.426 7.426 0 0 1 1.278-3.826A17.874 17.874 0 0 0 46.092 20.924Zm-2.281 7.759A7.426 7.426 0 0 1 42.5 24.808h2.985a10.37 10.37 0 0 0 0.625 3.209A17.879 17.879 0 0 0 43.811 28.682Zm0.47 0.61a17.133 17.133 0 0 1 2.1-0.585 10.424 10.424 0 0 0 2.1 3.056A7.458 7.458 0 0 1 44.281 29.292Zm2.851-0.725a17.446 17.446 0 0 1 2.456-0.226v3.443A9.7 9.7 0 0 1 47.132 28.567Zm3.189 3.191V28.341a17.458 17.458 0 0 1 2.428 0.222A9.7 9.7 0 0 1 50.321 31.757Zm1.067 0.012A10.423 10.423 0 0 0 53.5 28.7a17.136 17.136 0 0 1 2.132 0.591A7.457 7.457 0 0 1 51.388 31.769Zm2.385-3.758a10.371 10.371 0 0 0 0.622-3.2h3.015A7.426 7.426 0 0 1 56.1 28.682 17.88 17.88 0 0 0 53.773 28.011Z" fill="#ffffff" data-fill-palette-color="accent"></path></g></svg></g></svg></g><g></g></svg></g></svg></g></svg></g></svg></g><defs></defs></svg><rect width="320" height="360" fill="none" stroke="none" visibility="hidden"></rect></g></svg></g></svg>
